<?xml version="1.0" encoding="UTF-8" standalone="no"?>
<svg width="33px" height="50px" viewBox="0 0 33 50" version="1.1" xmlns="http://www.w3.org/2000/svg" xmlns:xlink="http://www.w3.org/1999/xlink" xmlns:sketch="http://www.bohemiancoding.com/sketch/ns">
    <!-- Generator: Sketch 3.2.2 (9983) - http://www.bohemiancoding.com/sketch -->
    <title>location-pin 4</title>
    <desc>Created with Sketch.</desc>
    <defs></defs>
    <g id="Page-1" stroke="none" stroke-width="1" fill="none" fill-rule="evenodd" sketch:type="MSPage">
        <g id="Travel-Hacks-11" sketch:type="MSArtboardGroup" transform="translate(-184.000000, -616.000000)" fill="#4A90E2">
            <path d="M200.495858,616 C191.399883,616 184,623.384933 184,632.462 C184,636.118267 186.339126,642.078667 191.151381,650.6844 C194.55519,656.771467 197.90302,661.8464 198.043437,662.059467 L200.495858,665.7688 L202.947611,662.059467 C203.088563,661.8464 206.436526,656.771467 209.839668,650.6844 C214.652057,642.078667 216.991182,636.118267 216.991182,632.462533 C216.991182,623.384933 209.5913,616 200.495858,616 L200.495858,616 Z M200.495858,640.8844 C195.773251,640.8844 191.945251,637.064133 191.945251,632.351067 C191.945251,627.638133 195.773251,623.817733 200.495858,623.817733 C205.217798,623.817733 209.046466,627.638133 209.046466,632.351067 C209.046466,637.064133 205.217798,640.8844 200.495858,640.8844 L200.495858,640.8844 Z" id="location-pin-4" sketch:type="MSShapeGroup"></path>
        </g>
    </g>
</svg>